<svg xmlns="http://www.w3.org/2000/svg" viewBox="0 0 512 512">
  <defs>
    <linearGradient id="bg" x1="0" y1="0" x2="0" y2="1">
      <stop offset="0%" stop-color="#111827"/>
      <stop offset="100%" stop-color="#1f2937"/>
    </linearGradient>
    <linearGradient id="juice" x1="0" y1="0" x2="0" y2="1">
      <stop offset="0%" stop-color="#4ade80"/>
      <stop offset="100%" stop-color="#166534"/>
    </linearGradient>
  </defs>
  
  <rect width="512" height="512" rx="120" fill="url(#bg)"/>
  
  <circle cx="256" cy="256" r="160" fill="#22c55e" opacity="0.2"/>
  
  <path d="M 180 400 L 332 400 L 360 180 L 152 180 Z" fill="url(#juice)"/>
  <ellipse cx="256" cy="180" rx="104" ry="24" fill="#86efac"/>
  
  <circle cx="210" cy="350" r="12" fill="#dcfce7" opacity="0.6"/>
  <circle cx="280" cy="300" r="18" fill="#dcfce7" opacity="0.6"/>
  <circle cx="240" cy="240" r="10" fill="#dcfce7" opacity="0.6"/>
  <circle cx="310" cy="210" r="14" fill="#dcfce7" opacity="0.6"/>
  
  <path d="M 170 410 L 342 410 L 374 150 L 138 150 Z" fill="none" stroke="#f8fafc" stroke-width="12" stroke-linecap="round" stroke-linejoin="round" opacity="0.7"/>
  <ellipse cx="256" cy="150" rx="118" ry="30" fill="none" stroke="#f8fafc" stroke-width="12" opacity="0.9"/>
  
  <path d="M 152 180 L 176 390" fill="none" stroke="#ffffff" stroke-width="18" stroke-linecap="round" opacity="0.5"/>
  <path d="M 354 180 L 338 340" fill="none" stroke="#ffffff" stroke-width="8" stroke-linecap="round" opacity="0.2"/>
  
  <path d="M 330 130 C 350 50, 460 40, 470 140 C 450 180, 360 190, 330 130 Z" fill="#22c55e" stroke="#14532d" stroke-width="6"/>
  <path d="M 330 130 C 380 110, 410 90, 460 135" fill="none" stroke="#14532d" stroke-width="4" opacity="0.6"/>
  
  <path d="M 110 140 L 120 110 L 150 100 L 120 90 L 110 60 L 100 90 L 70 100 L 100 110 Z" fill="#fde047"/>
  <path d="M 400 320 L 406 300 L 426 294 L 406 288 L 400 268 L 394 288 L 374 294 L 394 300 Z" fill="#fde047"/>
  <path d="M 120 300 L 124 286 L 138 282 L 124 278 L 120 264 L 116 278 L 102 282 L 116 286 Z" fill="#fde047" opacity="0.6"/>
</svg>
